<svg width="226" height="26" viewBox="0 0 226 26" fill="none" xmlns="http://www.w3.org/2000/svg">
<path d="M10.3289 6.102C8.4396 6.102 7.07027 6.63067 6.22094 7.688C5.38894 8.728 4.97294 10.158 4.97294 11.978C4.97294 12.862 5.07694 13.668 5.28494 14.396C5.49294 15.1067 5.80494 15.722 6.22094 16.242C6.63694 16.762 7.15694 17.1693 7.78094 17.464C8.40494 17.7413 9.13294 17.88 9.96494 17.88C10.4156 17.88 10.7969 17.8713 11.1089 17.854C11.4383 17.8367 11.7243 17.802 11.9669 17.75V11.484H16.0229V20.402C15.5376 20.5927 14.7576 20.792 13.6829 21C12.6083 21.2253 11.2823 21.338 9.70494 21.338C8.35294 21.338 7.12227 21.13 6.01294 20.714C4.92094 20.298 3.98494 19.6913 3.20494 18.894C2.42494 18.0967 1.81827 17.1173 1.38494 15.956C0.968938 14.7947 0.760938 13.4687 0.760938 11.978C0.760938 10.47 0.994938 9.13533 1.46294 7.974C1.93094 6.81267 2.57227 5.83333 3.38694 5.036C4.2016 4.22133 5.15494 3.606 6.24694 3.19C7.35627 2.774 8.53494 2.566 9.78294 2.566C10.6323 2.566 11.3949 2.62667 12.0709 2.748C12.7643 2.852 13.3536 2.982 13.8389 3.138C14.3416 3.27667 14.7489 3.424 15.0609 3.58C15.3903 3.736 15.6243 3.85733 15.7629 3.944L14.5929 7.194C14.0383 6.89933 13.3969 6.648 12.6689 6.44C11.9583 6.21467 11.1783 6.102 10.3289 6.102ZM24.9968 21.26C23.8701 21.2427 22.9515 21.1213 22.2408 20.896C21.5475 20.6707 20.9928 20.3587 20.5768 19.96C20.1781 19.544 19.9008 19.05 19.7448 18.478C19.6061 17.8887 19.5368 17.23 19.5368 16.502V1.448L23.4108 0.823999V15.722C23.4108 16.0687 23.4368 16.3807 23.4888 16.658C23.5408 16.9353 23.6361 17.1693 23.7748 17.36C23.9308 17.5507 24.1475 17.7067 24.4248 17.828C24.7021 17.9493 25.0748 18.0273 25.5428 18.062L24.9968 21.26ZM40.5554 14.136C40.5554 15.2107 40.3994 16.1987 40.0874 17.1C39.7754 17.984 39.3247 18.7467 38.7354 19.388C38.146 20.012 37.4354 20.4973 36.6034 20.844C35.7887 21.1907 34.87 21.364 33.8474 21.364C32.842 21.364 31.9234 21.1907 31.0914 20.844C30.2767 20.4973 29.5747 20.012 28.9854 19.388C28.396 18.7467 27.9367 17.984 27.6074 17.1C27.278 16.1987 27.1134 15.2107 27.1134 14.136C27.1134 13.0613 27.278 12.082 27.6074 11.198C27.954 10.314 28.422 9.56 29.0114 8.936C29.618 8.312 30.3287 7.82667 31.1434 7.48C31.9754 7.13333 32.8767 6.96 33.8474 6.96C34.8354 6.96 35.7367 7.13333 36.5514 7.48C37.3834 7.82667 38.094 8.312 38.6834 8.936C39.2727 9.56 39.732 10.314 40.0614 11.198C40.3907 12.082 40.5554 13.0613 40.5554 14.136ZM36.6034 14.136C36.6034 12.94 36.3607 12.004 35.8754 11.328C35.4074 10.6347 34.7314 10.288 33.8474 10.288C32.9634 10.288 32.2787 10.6347 31.7934 11.328C31.308 12.004 31.0654 12.94 31.0654 14.136C31.0654 15.332 31.308 16.2853 31.7934 16.996C32.2787 17.6893 32.9634 18.036 33.8474 18.036C34.7314 18.036 35.4074 17.6893 35.8754 16.996C36.3607 16.2853 36.6034 15.332 36.6034 14.136ZM51.5716 13.148C51.225 14.4653 50.8523 15.774 50.4536 17.074C50.0723 18.374 49.665 19.6827 49.2316 21H46.2156C45.9036 20.272 45.5656 19.4053 45.2016 18.4C44.8376 17.3947 44.4563 16.3027 44.0576 15.124C43.6763 13.928 43.2776 12.6713 42.8616 11.354C42.463 10.0193 42.073 8.676 41.6916 7.324H45.7736C45.9123 7.948 46.0596 8.63267 46.2156 9.378C46.389 10.106 46.5623 10.86 46.7356 11.64C46.9263 12.42 47.117 13.2087 47.3076 14.006C47.5156 14.786 47.7236 15.54 47.9316 16.268C48.157 15.5053 48.3736 14.7253 48.5816 13.928C48.807 13.1307 49.015 12.3507 49.2056 11.588C49.4136 10.808 49.6043 10.0627 49.7776 9.352C49.9683 8.624 50.133 7.948 50.2716 7.324H53.0796C53.2183 7.948 53.3743 8.624 53.5476 9.352C53.721 10.0627 53.903 10.808 54.0936 11.588C54.2843 12.3507 54.4836 13.1307 54.6916 13.928C54.8996 14.7253 55.1163 15.5053 55.3416 16.268C55.5496 15.54 55.7576 14.786 55.9656 14.006C56.1736 13.2087 56.3643 12.42 56.5376 11.64C56.7283 10.86 56.9016 10.106 57.0576 9.378C57.231 8.63267 57.387 7.948 57.5256 7.324H61.5556C61.1743 8.676 60.7756 10.0193 60.3596 11.354C59.961 12.6713 59.5623 13.928 59.1636 15.124C58.7823 16.3027 58.401 17.3947 58.0196 18.4C57.6556 19.4053 57.3176 20.272 57.0056 21H53.9896C53.5563 19.6827 53.1316 18.374 52.7156 17.074C52.2996 15.774 51.9183 14.4653 51.5716 13.148ZM77.1924 21.364C75.9271 21.364 74.8351 21.1907 73.9164 20.844C72.9977 20.48 72.2351 19.986 71.6284 19.362C71.0391 18.7207 70.5971 17.9667 70.3024 17.1C70.0251 16.216 69.8864 15.2453 69.8864 14.188V2.982H73.9424V13.85C73.9424 14.578 74.0204 15.202 74.1764 15.722C74.3497 16.2247 74.5751 16.6407 74.8524 16.97C75.1471 17.282 75.4937 17.5073 75.8924 17.646C76.3084 17.7847 76.7591 17.854 77.2444 17.854C78.2324 17.854 79.0297 17.5507 79.6364 16.944C80.2604 16.3373 80.5724 15.306 80.5724 13.85V2.982H84.6284V14.188C84.6284 15.2453 84.4811 16.216 84.1864 17.1C83.8917 17.984 83.4411 18.7467 82.8344 19.388C82.2277 20.012 81.4564 20.4973 80.5204 20.844C79.5844 21.1907 78.4751 21.364 77.1924 21.364ZM97.0312 14.266C97.0312 13.07 96.7626 12.1167 96.2252 11.406C95.6879 10.678 94.8906 10.314 93.8332 10.314C93.4866 10.314 93.1659 10.3313 92.8712 10.366C92.5766 10.3833 92.3339 10.4093 92.1432 10.444V17.438C92.3859 17.594 92.6979 17.724 93.0792 17.828C93.4779 17.932 93.8766 17.984 94.2752 17.984C96.1126 17.984 97.0312 16.7447 97.0312 14.266ZM100.983 14.162C100.983 15.2193 100.853 16.1813 100.593 17.048C100.333 17.9147 99.9519 18.66 99.4492 19.284C98.9466 19.908 98.3226 20.3933 97.5772 20.74C96.8319 21.0867 95.9739 21.26 95.0032 21.26C94.4659 21.26 93.9632 21.208 93.4952 21.104C93.0272 21 92.5766 20.8527 92.1432 20.662V25.81H88.2692V7.792C88.6159 7.688 89.0146 7.59267 89.4652 7.506C89.9159 7.402 90.3839 7.31533 90.8692 7.246C91.3719 7.17667 91.8746 7.12467 92.3772 7.09C92.8972 7.038 93.3912 7.012 93.8592 7.012C94.9859 7.012 95.9912 7.18533 96.8752 7.532C97.7592 7.86133 98.5046 8.338 99.1112 8.962C99.7179 9.56867 100.177 10.314 100.489 11.198C100.819 12.082 100.983 13.07 100.983 14.162ZM110.467 21V2.982H122.635V6.388H114.523V9.924H121.725V13.252H114.523V17.594H123.233V21H110.467ZM131.434 21.26C130.308 21.2427 129.389 21.1213 128.678 20.896C127.985 20.6707 127.43 20.3587 127.014 19.96C126.616 19.544 126.338 19.05 126.182 18.478C126.044 17.8887 125.974 17.23 125.974 16.502V1.448L129.848 0.823999V15.722C129.848 16.0687 129.874 16.3807 129.926 16.658C129.978 16.9353 130.074 17.1693 130.212 17.36C130.368 17.5507 130.585 17.7067 130.862 17.828C131.14 17.9493 131.512 18.0273 131.98 18.062L131.434 21.26ZM133.551 14.266C133.551 13.0527 133.733 11.9953 134.097 11.094C134.478 10.1753 134.972 9.41267 135.579 8.806C136.186 8.19933 136.879 7.74 137.659 7.428C138.456 7.116 139.271 6.96 140.103 6.96C142.044 6.96 143.578 7.558 144.705 8.754C145.832 9.93267 146.395 11.6747 146.395 13.98C146.395 14.2053 146.386 14.4567 146.369 14.734C146.352 14.994 146.334 15.228 146.317 15.436H137.529C137.616 16.2333 137.988 16.866 138.647 17.334C139.306 17.802 140.19 18.036 141.299 18.036C142.01 18.036 142.703 17.9753 143.379 17.854C144.072 17.7153 144.636 17.5507 145.069 17.36L145.589 20.506C145.381 20.61 145.104 20.714 144.757 20.818C144.41 20.922 144.02 21.0087 143.587 21.078C143.171 21.1647 142.72 21.234 142.235 21.286C141.75 21.338 141.264 21.364 140.779 21.364C139.548 21.364 138.474 21.182 137.555 20.818C136.654 20.454 135.9 19.96 135.293 19.336C134.704 18.6947 134.262 17.9407 133.967 17.074C133.69 16.2073 133.551 15.2713 133.551 14.266ZM142.651 12.784C142.634 12.4547 142.573 12.134 142.469 11.822C142.382 11.51 142.235 11.2327 142.027 10.99C141.836 10.7473 141.585 10.548 141.273 10.392C140.978 10.236 140.606 10.158 140.155 10.158C139.722 10.158 139.349 10.236 139.037 10.392C138.725 10.5307 138.465 10.7213 138.257 10.964C138.049 11.2067 137.884 11.4927 137.763 11.822C137.659 12.134 137.581 12.4547 137.529 12.784H142.651ZM148.734 14.162C148.734 13.174 148.89 12.2467 149.202 11.38C149.532 10.496 150 9.73333 150.606 9.092C151.213 8.43333 151.95 7.91333 152.816 7.532C153.683 7.15067 154.671 6.96 155.78 6.96C156.508 6.96 157.176 7.02933 157.782 7.168C158.389 7.28933 158.978 7.47133 159.55 7.714L158.744 10.808C158.38 10.6693 157.982 10.548 157.548 10.444C157.115 10.34 156.63 10.288 156.092 10.288C154.948 10.288 154.09 10.6433 153.518 11.354C152.964 12.0647 152.686 13.0007 152.686 14.162C152.686 15.3927 152.946 16.346 153.466 17.022C154.004 17.698 154.931 18.036 156.248 18.036C156.716 18.036 157.219 17.9927 157.756 17.906C158.294 17.8193 158.788 17.6807 159.238 17.49L159.784 20.662C159.334 20.8527 158.77 21.0173 158.094 21.156C157.418 21.2947 156.673 21.364 155.858 21.364C154.61 21.364 153.536 21.182 152.634 20.818C151.733 20.4367 150.988 19.9253 150.398 19.284C149.826 18.6427 149.402 17.8887 149.124 17.022C148.864 16.138 148.734 15.1847 148.734 14.162ZM162.254 3.918L166.128 3.294V7.324H170.782V10.548H166.128V15.358C166.128 16.1727 166.267 16.8227 166.544 17.308C166.839 17.7933 167.42 18.036 168.286 18.036C168.702 18.036 169.127 18.0013 169.56 17.932C170.011 17.8453 170.418 17.7327 170.782 17.594L171.328 20.61C170.86 20.8007 170.34 20.9653 169.768 21.104C169.196 21.2427 168.494 21.312 167.662 21.312C166.605 21.312 165.73 21.1733 165.036 20.896C164.343 20.6013 163.788 20.2027 163.372 19.7C162.956 19.18 162.662 18.556 162.488 17.828C162.332 17.1 162.254 16.294 162.254 15.41V3.918ZM182.179 10.756C181.833 10.6693 181.425 10.5827 180.957 10.496C180.489 10.392 179.987 10.34 179.449 10.34C179.207 10.34 178.912 10.366 178.565 10.418C178.236 10.4527 177.985 10.496 177.811 10.548V21H173.937V8.052C174.631 7.80933 175.445 7.584 176.381 7.376C177.335 7.15067 178.392 7.038 179.553 7.038C179.761 7.038 180.013 7.05533 180.307 7.09C180.602 7.10733 180.897 7.142 181.191 7.194C181.486 7.22867 181.781 7.28067 182.075 7.35C182.37 7.402 182.621 7.47133 182.829 7.558L182.179 10.756ZM188.78 21H184.906V7.324H188.78V21ZM189.144 3.372C189.144 4.08267 188.91 4.646 188.442 5.062C187.991 5.46067 187.454 5.66 186.83 5.66C186.206 5.66 185.66 5.46067 185.192 5.062C184.741 4.646 184.516 4.08267 184.516 3.372C184.516 2.66133 184.741 2.10667 185.192 1.708C185.66 1.292 186.206 1.084 186.83 1.084C187.454 1.084 187.991 1.292 188.442 1.708C188.91 2.10667 189.144 2.66133 189.144 3.372ZM191.772 14.162C191.772 13.174 191.928 12.2467 192.24 11.38C192.569 10.496 193.037 9.73333 193.644 9.092C194.25 8.43333 194.987 7.91333 195.854 7.532C196.72 7.15067 197.708 6.96 198.818 6.96C199.546 6.96 200.213 7.02933 200.82 7.168C201.426 7.28933 202.016 7.47133 202.588 7.714L201.782 10.808C201.418 10.6693 201.019 10.548 200.586 10.444C200.152 10.34 199.667 10.288 199.13 10.288C197.986 10.288 197.128 10.6433 196.556 11.354C196.001 12.0647 195.724 13.0007 195.724 14.162C195.724 15.3927 195.984 16.346 196.504 17.022C197.041 17.698 197.968 18.036 199.286 18.036C199.754 18.036 200.256 17.9927 200.794 17.906C201.331 17.8193 201.825 17.6807 202.276 17.49L202.822 20.662C202.371 20.8527 201.808 21.0173 201.132 21.156C200.456 21.2947 199.71 21.364 198.896 21.364C197.648 21.364 196.573 21.182 195.672 20.818C194.77 20.4367 194.025 19.9253 193.436 19.284C192.864 18.6427 192.439 17.8887 192.162 17.022C191.902 16.138 191.772 15.1847 191.772 14.162ZM209.987 18.296C210.369 18.296 210.733 18.2873 211.079 18.27C211.426 18.2527 211.703 18.2267 211.911 18.192V15.254C211.755 15.2193 211.521 15.1847 211.209 15.15C210.897 15.1153 210.611 15.098 210.351 15.098C209.987 15.098 209.641 15.124 209.311 15.176C208.999 15.2107 208.722 15.2887 208.479 15.41C208.237 15.5313 208.046 15.696 207.907 15.904C207.769 16.112 207.699 16.372 207.699 16.684C207.699 17.2907 207.899 17.7153 208.297 17.958C208.713 18.1833 209.277 18.296 209.987 18.296ZM209.675 6.96C210.819 6.96 211.773 7.09 212.535 7.35C213.298 7.61 213.905 7.98267 214.355 8.468C214.823 8.95333 215.153 9.54267 215.343 10.236C215.534 10.9293 215.629 11.7007 215.629 12.55V20.61C215.075 20.7313 214.303 20.87 213.315 21.026C212.327 21.1993 211.131 21.286 209.727 21.286C208.843 21.286 208.037 21.208 207.309 21.052C206.599 20.896 205.983 20.6447 205.463 20.298C204.943 19.934 204.545 19.466 204.267 18.894C203.99 18.322 203.851 17.62 203.851 16.788C203.851 15.9907 204.007 15.3147 204.319 14.76C204.649 14.2053 205.082 13.7633 205.619 13.434C206.157 13.1047 206.772 12.8707 207.465 12.732C208.159 12.576 208.878 12.498 209.623 12.498C210.126 12.498 210.568 12.524 210.949 12.576C211.348 12.6107 211.669 12.6627 211.911 12.732V12.368C211.911 11.7093 211.712 11.1807 211.313 10.782C210.915 10.3833 210.221 10.184 209.233 10.184C208.575 10.184 207.925 10.236 207.283 10.34C206.642 10.4267 206.087 10.5567 205.619 10.73L205.125 7.61C205.351 7.54067 205.628 7.47133 205.957 7.402C206.304 7.31533 206.677 7.246 207.075 7.194C207.474 7.12467 207.89 7.07267 208.323 7.038C208.774 6.986 209.225 6.96 209.675 6.96ZM224.593 21.26C223.466 21.2427 222.547 21.1213 221.837 20.896C221.143 20.6707 220.589 20.3587 220.173 19.96C219.774 19.544 219.497 19.05 219.341 18.478C219.202 17.8887 219.133 17.23 219.133 16.502V1.448L223.007 0.823999V15.722C223.007 16.0687 223.033 16.3807 223.085 16.658C223.137 16.9353 223.232 17.1693 223.371 17.36C223.527 17.5507 223.743 17.7067 224.021 17.828C224.298 17.9493 224.671 18.0273 225.139 18.062L224.593 21.26Z" fill="#121212"/>
</svg>
